<?xml version="1.0" encoding="utf-8"?><svg viewBox="0 0 100 100" xmlns="http://www.w3.org/2000/svg" xmlns:xlink="http://www.w3.org/1999/xlink"><style>:root>svg{display:none}:root>svg:target{display:block}</style><svg version="1.1" id="google-map" x="0" y="0" viewBox="0 0 100 100" xml:space="preserve" xmlns="http://www.w3.org/2000/svg"><style>.ast0{fill:#e9f4fc}.ast1{fill:#1193d1}.ast2{fill:#9fc2d2}.ast3{fill:#fff}.ast4{fill:#fff4d4}.ast5{fill:#c1d6e3}.ast6{fill:url(#aSVGID_1_)}.ast7{fill:#223c50}.ast8{fill:#fcf6d2}</style><path class="ast0" d="M66.6 90H22.1c-3.3 0-6-2.7-6-6V39.5c0-3.3 2.7-6 6-6h44.5c3.3 0 6 2.7 6 6V84c0 3.3-2.7 6-6 6z"/><path class="ast1" d="M39.9 90h26.7c3.3 0 6-2.7 6-6V43.5L39.9 90z"/><path class="ast1" d="M16.1 66.1V84c0 3.3 2.7 6 6 6h35.7L16.1 66.1z"/><path class="ast2" d="M22.1 33.5c-3.3 0-6 2.7-6 6v26.3l13 7.9 19.6-26.6H30.6l9.5-13.7h-18z"/><path class="ast3" d="M57 33.5l-9.1 12.9H32.1l9.2-12.9H39l-9.2 12.9H16.1v1.9h14.4l.2.1v-.1h15.8l-6.8 9.6-9.5-5.5-.9 1.6 9.3 5.4-10.6 15 1.5 1.1 29.8-42z"/><path class="ast4" d="M72.6 40.2L44.3 80.1 16.1 63.9v4.3l26 15-4.8 6.8h4.6l3.4-4.9 8.5 4.9h7.5l-13.8-8 25.1-35.3z"/><path class="ast5" d="M66.6 33.5H22.1c-3.3 0-6 2.7-6 6V84c0 3.3 2.7 6 6 6h44.5c3.3 0 6-2.7 6-6V39.5c0-3.3-2.7-6-6-6zm2.2 49.2c0 1.9-1.6 3.5-3.5 3.5h-42c-1.9 0-3.5-1.6-3.5-3.5v-42c0-1.9 1.6-3.5 3.5-3.5h42c1.9 0 3.5 1.6 3.5 3.5v42z"/><linearGradient id="aSVGID_1_" gradientUnits="userSpaceOnUse" x1="64.98" y1="53.333" x2="64.98" y2="-1.334"><stop offset="0" stop-color="#f28b6c"/><stop offset="1" stop-color="#c7586b"/></linearGradient><path class="ast6" d="M66.6 10c.5.1 1.1.1 1.6.2 5.6 1 10.1 3.9 13.3 8.6 2.8 4.1 3.8 8.7 3.2 13.6-.5 3.8-1.8 7.3-3.7 10.7-2.6 4.6-5.8 8.7-8.9 13-1.3 1.8-2.7 3.4-4.6 4.7-1.6 1.1-3.4 1.3-5 .1-1.2-.9-2.4-1.9-3.4-3.1-1.9-2.3-3.6-4.8-5.4-7.2-2.5-3.3-4.7-6.8-6.3-10.6-1.6-3.6-2.6-7.3-2.3-11.2.7-8.3 4.9-14 12.5-17.4 1.8-.8 3.7-1.2 5.6-1.4m-8.7 19.5C54.5 35.3 59.2 40 65 40c5.7 0 10.5-4.7 10.5-10.4C75.5 23.8 70.8 19 65 19s-10.5 4.7-10.5 10.5z"/><circle class="ast7" cx="65" cy="29.4" r="12.9"/><circle class="ast8" cx="65" cy="29.4" r="10"/></svg></svg>